Patient4_TMGait_0pt4_02_left_32_EMG.mot
version=1
nRows=13
nColumns=33
inDegrees=no
endheader
time	1LAddLong	2LGlutMax	3LGlutMed	4LIliopsoas	5LSemiMemb	6LBicFemLong	7LRecFem	8LVastMed	9LVastLat	10LGasMed	11LTibAnt	12lTibPost	13LPeroneusLong	14LSol	15LExtDigLong	16LFlexDigLong	17RAddLong	18RGlutMax	19RGlutMed	20RIliopsoas	21RSemiMemb	22RBicFemLong	23RRecFem	24RVastMed	25RVastLat	26RGasMed	27RTibAnt	28RTibPost	29RPeroneusLong	30RSol	31RExtDigLong	32RFlexDigLong
43.307	0.023346	-0.081635	0.069122	-0.002441	-0.049591	0.050964	-0.54489	-0.018616	-0.017242	-0.053558	0.012817	0.040894	0.94269	0.086823	0.006104	0.021057	0.11246	-0.17334	-0.05722	0.103	-0.000458	-0.10407	0.4335	-0.054779	-0.011749	-0.008545	0.077972	-0.011749	-0.21271	-0.13046	-0.002289	-0.016022
43.308	0.011749	-0.051575	0.037079	-0.002136	-0.06958	0.053558	-0.53406	0.004883	-0.048828	-0.043335	0.049438	0.032196	-0.17044	0.20111	0.058746	0.015869	0.12405	-0.12222	-0.33142	0.13031	0.04837	-0.11917	0.46982	-0.079956	-0.019531	-0.000916	0.006104	-0.010529	0.49271	-0.091248	0.000153	-0.020599
43.309	0.001068	-0.12314	-0.06012	-0.010071	-0.071716	-0.01709	-0.62698	0.023804	-0.066223	-0.046082	0.062866	-0.008392	-0.5954	0.21988	0.06134	0.005646	0.097809	-0.096283	-0.16846	0.1326	0.046082	-0.054321	0.38483	-0.042877	-0.023193	-0.005798	-0.028381	-0.005646	0.30746	-0.006104	-0.000916	-0.015259
43.31	0.009918	-0.12421	-0.002899	0.017548	-0.12695	-0.14847	-0.66498	-0.002899	-0.070038	-0.063477	-0.013123	-0.025024	0.59891	0.28473	-0.001526	0.016632	0.058136	-0.093079	-0.16235	0.08316	0.020294	-0.017853	0.34027	-0.049591	-0.021973	-0.007629	-0.005188	-0.005188	0.12375	-0.062103	-0.00061	-0.015564
43.311	0.010223	-0.037384	-0.037384	0.019379	-0.14755	-0.29938	-0.66528	0.006409	-0.021362	0.13458	-0.027313	-0.00885	-0.1683	0.28839	-0.015869	0.014496	0.026398	-0.071411	-0.15762	0.010223	-0.009918	-0.041656	0.31494	-0.011292	-0.011444	-0.025177	-0.005188	-0.009918	0.14557	0.032806	0.000153	-0.010834
43.312	0.010376	-0.10574	-0.076904	0.015411	-0.15915	-0.23468	-0.67108	0.004425	0.005188	0.22812	-0.030823	0.027771	-0.24643	0.26428	-0.024567	0.020599	0.042725	-0.030212	-0.046234	-0.084686	-0.012512	-0.032349	0.26138	0.016632	-0.014648	-0.025482	-0.037384	-0.006561	0.20432	0.168	-0.001221	-0.012512
43.313	0.03006	-0.11902	-0.061798	0.015411	-0.00824	-0.27237	-0.73441	0.027924	-0.041199	0.20309	-0.04715	0.10101	-0.40894	0.19852	-0.028687	0.053101	0.029144	-0.003662	-0.026855	-0.14648	-0.019836	-0.050201	0.25146	0.02655	-0.022736	-0.018768	-0.022278	-0.009918	0.29526	0.30319	-0.002747	-0.012817
43.314	0.029755	-0.054016	-0.02655	0.014191	0.1384	-0.42847	-0.70831	0.015869	-0.071106	0.071869	-0.038605	-0.13062	-0.21988	0.21149	0.012054	0.058899	0.017853	0.048981	0.089264	-0.11597	-0.014343	-0.05127	0.23132	0.012665	-0.004578	-0.015259	-0.034332	-0.000763	-0.067291	0.19058	-0.001678	-0.007019
43.315	0.007477	-0.005493	0.035706	0.003357	0.15671	-0.21393	-0.62912	-0.002747	-0.06134	0.13809	-0.035553	-0.065613	0.04303	0.19089	0.006866	-0.06424	0.01358	0.055084	0.015869	-0.057526	-0.022583	-0.041504	0.25238	0.007477	-0.001373	-0.009918	-0.002899	-0.006714	-0.20706	-0.003662	-0.00473	-0.007019
43.316	0.01297	-0.034027	-0.030212	-0.001221	0.083771	-0.034943	-0.62607	-0.012665	-0.003815	0.021362	-0.038147	-0.019226	0.3569	0.10223	-0.14511	-0.044403	-0.000153	0.038452	0.046234	-0.07019	-0.002289	-0.029449	0.28961	-0.010681	-0.014343	-0.018158	0.011292	-0.011292	-0.32577	-0.092316	-0.00061	-0.014191
43.317	0.009918	0.051117	0.024567	0.009613	0.042572	0.1976	-0.59601	-0.016022	0.049133	-0.36896	-0.030823	-0.030365	0.016174	-0.19394	-0.16357	-0.006561	-0.008392	-0.02121	0.15732	-0.024872	0.020752	-0.011749	0.29282	-0.00412	-0.020294	-0.019836	0.045471	-0.011902	-0.48691	-0.14465	-0.001984	-0.01709
43.318	0.011292	0.020905	-0.10025	0.012817	0.015411	0.3801	-0.63812	-0.006256	0.13825	-0.43686	0.018158	-0.032654	-0.66284	-0.21912	-0.012054	-0.00473	-0.028839	-0.016632	0.30563	0.016022	0.039215	-0.04303	0.29312	0.03418	-0.02533	-0.013733	0.015411	-0.006409	-0.44968	-0.24536	0.007935	-0.015411
43.319	0.014954	0.076752	-0.11627	0.027924	0.027008	0.39017	-0.72845	-0.000916	0.26062	-0.20111	0.024719	0.003662	-0.60028	-0.10498	0.040741	-0.018921	-0.04303	0.008698	0.1326	0.065155	0.04425	-0.067291	0.27985	0.011749	-0.022125	-0.007477	-0.032349	-0.013885	-0.41702	-0.15366	-0.002441	-0.002441
